<svg width="120" height="108" viewBox="0 0 38 34" fill="none" xmlns="http://www.w3.org/2000/svg">
  <!-- Ship hull -->
  <path d="M2 21 Q19 29 36 21 L34 18 Q19 25 4 18 Z" fill="url(#hullGrad)"/>
  <!-- Keel / bow tip -->
  <path d="M34 18 Q37 17 36 21" fill="#0072F5" opacity="0.6"/>
  <!-- Mast -->
  <line x1="19" y1="18" x2="19" y2="4" stroke="#00B4D8" stroke-width="1.6" stroke-linecap="round"/>
  <!-- Blockchain sail — nodes -->
  <circle cx="19" cy="4"  r="2.2" fill="#00D2FF"/>
  <circle cx="11" cy="10" r="1.7" fill="#00D2FF" opacity="0.9"/>
  <circle cx="27" cy="10" r="1.7" fill="#00D2FF" opacity="0.9"/>
  <circle cx="15" cy="15" r="1.5" fill="#00D2FF" opacity="0.8"/>
  <circle cx="23" cy="15" r="1.5" fill="#00D2FF" opacity="0.8"/>
  <!-- Chain links -->
  <line x1="19" y1="4"  x2="11" y2="10" stroke="#00D2FF" stroke-width="1.1" opacity="0.75"/>
  <line x1="19" y1="4"  x2="27" y2="10" stroke="#00D2FF" stroke-width="1.1" opacity="0.75"/>
  <line x1="11" y1="10" x2="15" y2="15" stroke="#00D2FF" stroke-width="1.1" opacity="0.65"/>
  <line x1="27" y1="10" x2="23" y2="15" stroke="#00D2FF" stroke-width="1.1" opacity="0.65"/>
  <line x1="11" y1="10" x2="27" y2="10" stroke="#00D2FF" stroke-width="0.8" opacity="0.4"/>
  <line x1="15" y1="15" x2="23" y2="15" stroke="#00D2FF" stroke-width="0.8" opacity="0.4"/>
  <!-- Wave -->
  <path d="M0 25 Q9.5 23 19 25 Q28.5 27 38 25" stroke="#0072F5" stroke-width="1.3" fill="none" opacity="0.35" stroke-linecap="round"/>
  <defs>
    <linearGradient id="hullGrad" x1="2" y1="18" x2="36" y2="18" gradientUnits="userSpaceOnUse">
      <stop offset="0%"   stop-color="#0050B3"/>
      <stop offset="50%"  stop-color="#0072F5"/>
      <stop offset="100%" stop-color="#0050B3"/>
    </linearGradient>
  </defs>
</svg>
